<svg xmlns="http://www.w3.org/2000/svg" xmlns:xlink="http://www.w3.org/1999/xlink" width="24" height="24" viewBox="0 0 24 24">
  <defs>
    <path id="cat-a" d="M16.7723158,6.180627 C16.71843,6.03943272 16.6270289,5.30413112 16.6604517,4.99514075 C16.6938745,4.68615038 16.8377972,4.22095957 16.9721705,4.17389481 C17.1065438,4.12683005 17.4012101,4.27961999 17.7463517,4.73048674 C18.0287402,4.96581054 18.2804344,5.2461528 18.3541009,5.27275462 C18.4277675,5.29935644 18.6760512,5.20590902 18.9918625,5.15270538 C19.3656522,5.15065908 19.6193927,5.20795531 19.7537659,5.21477629 C19.8881392,5.22159727 20.547728,4.08931467 20.8901411,4.00473452 C21.2325543,3.92015437 21.3880726,4.99309446 21.4214954,5.28230399 C21.4549182,5.57151352 21.4617392,6.06876293 21.4617392,6.06876293 C21.4617392,6.06876293 21.7639086,6.60011724 21.8423499,7.12260427 C21.8307542,7.67442152 21.6929704,8.2794424 21.3021283,8.76373195 C21.105002,9.00792302 21.2325543,9.49835145 21.2598382,9.77391902 C21.2871222,10.0494866 21.4815201,10.7895629 21.3805696,11.35434 C21.2803012,11.9191171 20.8635393,12.8201685 20.5538668,13.7614637 C20.2441944,14.7027588 20.4597373,16.1085627 20.5470459,16.3302446 C20.6350365,16.5519264 20.7489469,17.3588483 20.8089715,17.5675703 C20.8689961,17.7762922 21.1718476,18.3069644 21.2195945,18.3069644 C21.2666592,18.3069644 21.9862726,18.4345168 21.9992324,18.8383188 C22.0121923,19.2421207 21.8580381,19.4167378 21.7639086,19.4228767 C21.6697791,19.4296977 21.1793507,19.4228767 21.1793507,19.4228767 C21.1793507,19.4228767 21.1657087,19.7120862 20.8294344,19.7120862 C20.4931601,19.7120862 19.8335714,19.6923054 19.6255315,19.4638026 C19.4174917,19.2352998 18.4550514,17.8226749 18.3745639,17.6814806 C18.2940763,17.5402863 18.1992647,17.3520273 18.152882,17.3520273 C18.1064994,17.3520273 18.1494716,17.6412368 18.0041847,17.8704218 C17.8588978,18.0996067 17.6685925,18.2196559 17.6685925,18.2196559 C17.6685925,18.2196559 17.9175583,18.4754426 18.0253297,18.5088654 C18.1331012,18.5422882 18.375246,18.7510102 18.3077183,19.0129358 C18.2401906,19.2748614 18.0655735,19.3226083 18.0048668,19.3287472 C17.9441601,19.3355682 17.8773145,19.3492101 17.8773145,19.3492101 C17.8773145,19.3492101 17.8438917,19.6049969 17.6556326,19.7059474 C17.4673736,19.8068978 16.7614022,19.7796139 16.7614022,19.7796139 L14.6837318,19.6854844 C14.6837318,19.6854844 12.1961206,19.7393702 12.0747072,19.7257282 C11.9532937,19.7120862 11.7247909,19.6520616 11.7247909,19.6520616 C11.7247909,19.6520616 7.86479859,19.6391018 7.45485772,19.6391018 C7.04491685,19.6391018 3.74288065,19.396957 3.24563124,19.383315 C2.74838183,19.3703552 1.96124079,19.3635342 2.00148457,18.8390008 C2.04172834,18.3144675 2.45917229,18.025258 3.48095503,17.9440883 C4.50273777,17.8636008 5.86147689,17.8772427 6.37236826,17.8902026 C6.88325963,17.9031625 8.59805389,17.9911531 8.88726342,18.004795 C9.17647296,18.018437 10.6088787,18.1193875 10.8107797,17.9775111 C11.0119986,17.8363169 11.2548254,17.6753417 11.1600138,17.0764597 C11.0665664,16.4782598 10.5324837,12.5691564 12.3079847,10.9280288 C13.5630449,9.76778014 14.594377,9.47584222 15.4817865,9.26029926 C15.8849063,9.22005548 16.3112176,9.02702176 16.4183069,8.87900651 C16.5253963,8.73099125 16.8091491,8.38516759 16.8091491,8.38516759 C16.8091491,8.38516759 16.495384,7.77196153 16.5936061,6.96913223 C16.6031555,6.50735192 16.7729979,6.1799449 16.7729979,6.1799449 L16.7723158,6.180627 Z"/>
  </defs>
  <use fill="#3C9700" xlink:href="#cat-a"/>
</svg>
