<svg xmlns="http://www.w3.org/2000/svg" xmlns:xlink="http://www.w3.org/1999/xlink" width="24" height="24" viewBox="0 0 24 24">
  <defs>
    <path id="dog-a" d="M15.4863801,7.25510174 C15.5018038,7.24504279 15.2563652,7.14042962 15.2563652,7.14042962 C15.2563652,7.14042962 15.4434618,7.12634708 15.6419586,7.04788721 C15.8223493,6.97680391 16.0114577,6.84469626 16.0946117,6.77763655 C16.4795345,6.46580885 16.9288346,6.09295682 17.0817308,5.94743723 C17.3506402,5.6905985 18.0333082,5.34658214 18.1647452,5.25269854 C18.2358285,5.20173315 18.3256886,4.88387008 18.4450549,4.59014852 C18.546315,4.34068636 18.6824463,4.11134212 18.7025642,4.05098838 C18.8044949,3.91821013 18.8983786,4.07043569 18.9734854,4.21461409 C19.0485923,4.35879249 19.119005,4.77255095 19.119005,4.77255095 C19.119005,4.77255095 19.4596684,4.30648591 19.5039278,4.43591116 C19.5481872,4.56533642 19.5381283,4.8094338 19.5374577,4.97842429 C19.5361165,5.23056883 19.5025866,5.36267648 19.5287399,5.43375978 C19.5723287,5.55245548 19.8479442,5.74089329 19.8479442,5.74089329 C19.8479442,5.74089329 20.3240682,6.22908805 20.4052104,6.29145358 C20.4863527,6.35381912 20.5487182,6.52951559 20.5426829,6.61669322 C20.5366475,6.70387085 20.599013,6.91108539 20.7492268,7.02374571 C20.8994406,7.13640604 21.7001336,7.65611886 21.8751595,7.77481456 C22.0501853,7.89351027 21.9938552,8.03165329 21.9817844,8.09401883 C21.9697137,8.15638437 21.837606,8.31330411 21.837606,8.31330411 C21.837606,8.31330411 21.6873923,8.72639198 21.3742234,8.70157988 C21.0617251,8.67676778 20.9671709,8.69487391 20.9671709,8.69487391 C20.9671709,8.69487391 21.0737958,8.8390523 21.130126,8.90141784 C21.1864562,8.96378338 21.2427863,9.17703329 21.1924915,9.20788076 C21.1421967,9.23872823 21.0362424,9.33328243 20.7666623,9.30176436 C20.4977529,9.2702463 19.8640385,9.0777849 19.7714961,9.07040833 C19.7178483,9.06571415 19.6071998,9.04894922 19.546846,9.08717326 C19.4864923,9.1253973 19.4918571,9.25214017 19.4918571,9.25214017 C19.4918571,9.25214017 19.3999853,9.10594998 19.3986441,9.15892716 C19.3973029,9.21190434 19.36042,9.44124858 19.36042,9.44124858 C19.36042,9.44124858 19.2611716,9.25683435 19.2397125,9.27695227 C19.2195946,9.29572899 19.2128886,9.49355516 19.2128886,9.49355516 C19.2128886,9.49355516 19.1518643,9.37553005 19.1069343,9.44326037 C18.9647677,9.65852207 18.6469046,10.1540934 18.4759023,10.5363338 C18.4222546,10.6557001 18.3686068,10.7797606 18.3142884,10.9058328 C18.218393,11.1284711 17.9555189,12.1336963 17.9555189,12.1336963 L17.8267642,12.0069534 L17.7576927,12.5031953 L17.6343029,12.4046176 L17.5290191,12.8445293 L17.3124162,12.7231512 C17.3124162,12.7231512 16.8007506,13.4903144 16.493617,13.7250234 C16.0912587,14.0334981 15.6654295,14.3278903 15.6090993,14.3667849 C15.5085098,14.4358564 15.2456357,14.736284 15.2523416,15.167478 C15.2590476,15.598672 15.0330564,17.2396233 15.0893865,17.489756 C15.1457167,17.7398888 15.4119438,18.165718 15.4494972,18.1972361 C15.4870507,18.2287541 15.6654295,18.1972361 15.8652675,18.3910387 C16.027552,18.5479584 15.9028209,18.8356446 15.8029019,18.873198 C15.702983,18.9107515 15.4340735,18.9107515 15.4340735,18.9107515 C15.4340735,18.9107515 15.5688635,18.9167869 15.6339114,19.0676712 C15.7123713,19.2494031 15.5903226,19.4935004 15.4213321,19.4935004 C15.2523416,19.4935004 14.9613025,19.5216655 14.7829236,19.4653354 C14.6045448,19.4090052 14.5327909,19.224591 14.4134246,19.1367427 C14.2940583,19.0488945 13.8065341,18.5043696 13.7562393,18.2414955 C13.7066151,17.9786214 13.5376246,17.3777663 13.5181773,17.0143026 C13.505436,16.7628287 13.4289879,16.0774784 13.350528,15.5993426 C13.3377867,15.5215533 13.2150674,15.5088119 13.312304,15.3854221 C13.3283983,15.3653041 13.3344337,15.350551 13.2754211,15.3290919 C13.1902553,15.2982444 13.1332545,15.3431744 13.1332545,15.3431744 C13.1332545,15.3431744 13.0319944,15.1748545 13.2499384,15.1419953 C13.0936893,15.0816415 13.0004763,15.1077948 13.0004763,15.1077948 C13.0004763,15.1077948 12.9910879,15.0045229 13.2237851,14.9401455 C13.2492678,14.9334396 13.2036672,14.8831448 13.1345957,14.8945449 C13.0205942,14.9133216 12.8790982,14.9542281 12.8790982,14.9542281 C12.8790982,14.9542281 12.9575581,14.8207792 13.0326649,14.7818846 C13.1077718,14.74299 13.1399605,14.7108013 13.1399605,14.7108013 C13.1399605,14.7108013 12.7248608,14.5223635 12.5055756,14.4660333 C11.5419274,14.2782661 10.1772621,13.577492 9.69510274,13.5271972 C9.21294336,13.4769025 8.92525717,14.3158195 8.47461586,14.7476841 C8.02397455,15.1795487 7.56059189,15.4679055 7.09787983,15.5993426 C6.63516777,15.7307796 6.55939029,16.675651 6.55939029,16.675651 C6.55939029,16.675651 6.58755537,17.2765061 6.85981783,17.6050988 C7.11330356,17.6614289 7.26351733,17.6050988 7.50493232,18.127494 C7.51767367,18.2401543 7.44860216,18.35885 7.32990646,18.3715913 C7.21121075,18.3843327 6.69149793,18.3903681 6.62242642,18.3843327 C6.55335491,18.3782973 6.3662583,18.2964845 6.32803426,18.1777888 C6.28981022,18.059093 5.67688439,17.0263734 5.67688439,17.0263734 L5.40126894,16.6696157 L5.35097415,16.6950984 C5.35097415,16.6950984 5.35097415,17.4522026 5.38249222,17.6151577 C5.41401029,17.7781128 5.29464399,18.2220482 5.60781287,18.40378 C5.92098176,18.5855118 6.09734882,19.0374943 5.75802665,19.2326381 C4.85406163,19.2889683 4.81851998,18.9503167 4.81851998,18.9503167 C4.81851998,18.9503167 4.82120237,18.8805746 4.7662134,18.7531611 C4.70653025,18.6143475 4.67702398,18.4413334 4.65690606,18.4285921 C4.61935262,18.40378 4.51608065,18.4406628 4.51809244,18.2602722 C4.53083379,18.2227188 4.56838723,17.7157473 4.52412782,17.4716499 C4.4798684,17.2275525 4.22973565,16.5012958 4.17340549,16.3886355 C4.11707532,16.2759751 4.11103995,16.1820915 4.10500458,16.1639854 C4.0989692,16.1458793 3.96753215,16.1767267 3.86694257,16.1887975 C3.76702359,16.2008682 3.30967631,16.1324673 3.2157927,16.1324673 C3.1219091,16.1324673 2.94621263,16.0949139 2.94621263,16.0949139 L3.0025428,16.0258424 L2.91469457,16.019807 L2.9770601,15.9319588 C2.9770601,15.9319588 2.93950666,15.8380752 2.84562305,15.8192984 C2.75173945,15.8005217 2.52038342,15.6563433 2.47008863,15.6503079 C2.41979384,15.643602 2.37016965,15.6000132 2.39498174,15.5872718 C2.41979384,15.5745305 2.5009361,15.4182813 2.5009361,15.4182813 L2.54452492,15.2492908 L2.32523964,15.3619512 L2.37553443,15.198996 L2.41912324,14.9736754 L2.24409738,14.960934 C2.24409738,14.960934 2.18173184,14.9106392 2.20050856,14.9046039 C2.21928528,14.8985685 2.27561544,14.8858272 2.27561544,14.8858272 L2.12540167,14.829497 L2.11266033,14.7671315 L2.01877672,14.6859892 L2,14.5666229 L2.1186957,14.4606685 C2.1186957,14.4606685 2.19380259,14.3795263 2.16228452,14.3795263 C2.13076645,14.3795263 2.09321301,14.4231151 2.09321301,14.4231151 L2.15557855,14.2541246 C2.15557855,14.2541246 2.05498897,14.2729013 2.07443629,14.2353479 C2.09388361,14.1977944 2.19313199,14.0348393 2.19313199,14.0348393 L2.18106124,13.9597324 C2.18106124,13.9597324 2.22465006,13.8470721 2.23068543,13.8276248 C2.23672081,13.8081775 2.15557855,13.7900713 2.15557855,13.7900713 L2.32456904,13.7022231 L2.25549753,13.5023852 L2.21190871,13.3897248 L2.24946215,13.2770645 L2.21190871,13.1704395 L2.15557855,13.207993 L2.16831989,13.0892973 C2.16831989,13.0892973 2.13680183,13.008155 2.11198973,12.9826723 C2.08717763,12.9571896 2.03084747,12.8887887 2.03084747,12.8887887 C2.03084747,12.8887887 2.12473108,12.8257526 2.30579232,12.8760474 C2.48752416,12.9263422 2.93213009,13.2891352 3.1695215,13.6398576 C3.4069129,13.9905799 3.59535071,14.0402041 3.83944809,14.0402041 C4.08354547,14.0402041 5.04115825,13.4896438 4.71591861,12.6446913 C4.577105,12.2839101 4.3611727,11.0406229 4.74073071,10.2345651 C5.15381858,9.35809453 6.22409169,8.69487391 7.55120353,8.51984804 C8.87831536,8.34482218 10.7063633,8.49436535 11.5197977,8.52588342 C12.6088475,8.53527178 13.8756056,8.08395987 14.7500643,7.65880125 C14.8761366,7.59777691 14.5582736,7.52937599 14.5582736,7.52937599 L15.2161294,7.44555135 C15.2161294,7.44555135 15.2013763,7.39793894 15.1262694,7.36776207 C15.0511625,7.3375852 14.9767262,7.32886743 14.9767262,7.32886743 C14.9767262,7.32886743 15.0887159,7.29734937 15.1953409,7.28393742 C15.3281191,7.26717249 15.4635798,7.26717249 15.4823565,7.25510174 L15.4863801,7.25510174 Z"/>
  </defs>
  <use fill="#3C9700" xlink:href="#dog-a"/>
</svg>
