<svg xmlns="http://www.w3.org/2000/svg" xmlns:xlink="http://www.w3.org/1999/xlink" width="24" height="24" viewBox="0 0 24 24">
  <defs>
    <path id="rabbit-a" d="M18.7939771,6.90612704 C18.1316869,6.03880139 17.0030275,6.08568386 16.2416242,5.86221077 C16.0964121,5.35666149 14.7418671,2.85860735 14.2447653,3.00628712 C13.7430535,3.02660286 14.1348958,3.39463023 14.1809949,4.54168793 C13.9189984,4.29711773 13.24672,3.17584538 13.0169928,3.69545939 C12.4461324,5.12459328 14.1525671,6.96941837 14.1671651,7.35229186 C14.0496124,7.61248955 13.9758539,8.89238091 13.3588944,9.17367572 C13.1138009,9.31119762 10.9863279,9.52529423 8.65755553,10.8981691 C6.32570989,12.2710441 5.90006162,14.2033831 5.47364504,16.1365035 C5.36915376,16.6522107 5.26466249,17.1679178 5.40910631,17.6719043 C5.28924868,17.8055194 5.16939104,17.9375716 5.05260668,18.1977693 C4.82825777,18.8455288 5.35532404,19.4620332 5.9922598,19.6917573 C6.1274838,19.9410158 6.25732957,20.0636915 6.51471616,20.1801163 C7.16701828,20.7919325 9.66405233,20.434063 9.91836565,20.5520506 C10.1734473,20.6684754 11.1922372,21.009936 11.4419406,20.9997781 C11.8191848,20.9841507 12.8279866,21.0716646 12.8126202,20.6895725 C12.7772776,19.7972429 11.8783453,19.3221672 11.8783453,19.3221672 C11.8783453,19.3221672 12.3700689,19.046342 13.1015078,18.5064122 C13.838325,18.0938465 14.1848364,17.3124721 14.5620807,17.2968446 C15.0614875,17.2765289 15.1275628,18.9330427 15.5194051,19.3010701 C15.9112474,19.6675347 16.3315174,20.7989649 16.8386074,20.9067946 C17.2204615,21.0185311 18.4689786,20.8395964 18.5788481,20.452816 C18.6887176,20.0644729 18.4390142,20.0746308 18.1716394,19.7026965 C17.9065697,19.3307623 17.5992424,17.9391344 17.8258963,17.291375 C18.0556234,16.7709796 18.4612954,14.3276216 18.5504203,13.4306038 C18.6349353,12.4046591 18.4843449,11.7725272 18.936116,10.4770083 C19.7974007,10.058973 20.0194446,9.28384952 19.9987,8.773612 C19.8588661,8.39698951 19.4562674,7.77501544 18.7939771,6.90768979 L18.7939771,6.90612704 Z"/>
  </defs>
  <use fill="#3C9700" xlink:href="#rabbit-a"/>
</svg>
